<?xml version="1.0" encoding="UTF-8"?>
<svg width="1600" height="1200" viewBox="0 0 1600 1200" xmlns="http://www.w3.org/2000/svg">
  <defs>
    <style>
      .stripboard { fill: #8B4513; stroke: #654321; stroke-width: 2; }
      .hole { fill: #333; stroke: #222; stroke-width: 1; }
      .copper { fill: none; stroke: #CD7F32; stroke-width: 4; }
      .component { fill: #444; stroke: #666; stroke-width: 2; }
      .resistor { fill: #DEB887; stroke: #8B7355; stroke-width: 2; }
      .capacitor { fill: #4169E1; stroke: #191970; stroke-width: 2; }
      .ic { fill: #222; stroke: #666; stroke-width: 2; }
      .wire { fill: none; stroke: #FF0000; stroke-width: 3; }
      .cut { stroke: #FF0000; stroke-width: 4; stroke-dasharray: "5,5"; }
      text { fill: #fff; font-size: 14px; font-family: Arial, sans-serif; font-weight: bold; }
      .label { font-size: 20px; font-weight: bold; }
      .title { font-size: 28px; font-weight: bold; fill: #ff3333; }
      .grid-label { font-size: 12px; fill: #999; }
      .value { fill: #ffff00; font-weight: bold; }
      .section-title { font-size: 18px; fill: #00ffff; font-weight: bold; }
    </style>
  </defs>
  
  <!-- Background -->
  <rect width="1600" height="1200" fill="#222"/>
  
  <!-- Title -->
  <text x="800" y="35" text-anchor="middle" class="title">Stripboard Construction Layouts</text>
  <text x="800" y="60" text-anchor="middle" class="label">ML-303 Interface Circuits - Detailed Build Guide</text>
  
  <!-- MIDI Interface Layout -->
  <text x="200" y="110" text-anchor="middle" class="section-title">MIDI Interface Circuit (6N138)</text>
  <text x="200" y="130" text-anchor="middle" class="label">Size: 15×9 holes</text>
  
  <!-- MIDI Stripboard -->
  <rect class="stripboard" x="50" y="150" width="300" height="180" rx="5"/>
  
  <!-- MIDI Grid Pattern -->
  <g id="midi-grid">
    <!-- Copper tracks (horizontal) -->
    <line class="copper" x1="60" y1="165" x2="340" y2="165"/>  <!-- Row A -->
    <line class="copper" x1="60" y1="185" x2="340" y2="185"/>  <!-- Row B -->
    <line class="copper" x1="60" y1="205" x2="340" y2="205"/>  <!-- Row C -->
    <line class="copper" x1="60" y1="225" x2="340" y2="225"/>  <!-- Row D -->
    <line class="copper" x1="60" y1="245" x2="340" y2="245"/>  <!-- Row E -->
    <line class="copper" x1="60" y1="265" x2="340" y2="265"/>  <!-- Row F -->
    <line class="copper" x1="60" y1="285" x2="340" y2="285"/>  <!-- Row G -->
    <line class="copper" x1="60" y1="305" x2="340" y2="305"/>  <!-- Row H -->
    <line class="copper" x1="60" y1="325" x2="340" y2="325"/>  <!-- Row I -->
    
    <!-- Grid holes -->
    <g fill="#333" stroke="#666">
      <!-- Row by row holes -->
      <circle cx="80" cy="165" r="3"/>
      <circle cx="100" cy="165" r="3"/>
      <circle cx="120" cy="165" r="3"/>
      <circle cx="140" cy="165" r="3"/>
      <circle cx="160" cy="165" r="3"/>
      <circle cx="180" cy="165" r="3"/>
      <circle cx="200" cy="165" r="3"/>
      <circle cx="220" cy="165" r="3"/>
      <circle cx="240" cy="165" r="3"/>
      <circle cx="260" cy="165" r="3"/>
      <circle cx="280" cy="165" r="3"/>
      <circle cx="300" cy="165" r="3"/>
      <circle cx="320" cy="165" r="3"/>
      
      <circle cx="80" cy="185" r="3"/>
      <circle cx="100" cy="185" r="3"/>
      <circle cx="120" cy="185" r="3"/>
      <circle cx="140" cy="185" r="3"/>
      <circle cx="160" cy="185" r="3"/>
      <circle cx="180" cy="185" r="3"/>
      <circle cx="200" cy="185" r="3"/>
      <circle cx="220" cy="185" r="3"/>
      <circle cx="240" cy="185" r="3"/>
      <circle cx="260" cy="185" r="3"/>
      <circle cx="280" cy="185" r="3"/>
      <circle cx="300" cy="185" r="3"/>
      <circle cx="320" cy="185" r="3"/>
      
      <circle cx="80" cy="205" r="3"/>
      <circle cx="100" cy="205" r="3"/>
      <circle cx="120" cy="205" r="3"/>
      <circle cx="140" cy="205" r="3"/>
      <circle cx="160" cy="205" r="3"/>
      <circle cx="180" cy="205" r="3"/>
      <circle cx="200" cy="205" r="3"/>
      <circle cx="220" cy="205" r="3"/>
      <circle cx="240" cy="205" r="3"/>
      <circle cx="260" cy="205" r="3"/>
      <circle cx="280" cy="205" r="3"/>
      <circle cx="300" cy="205" r="3"/>
      <circle cx="320" cy="205" r="3"/>
      
      <circle cx="80" cy="225" r="3"/>
      <circle cx="100" cy="225" r="3"/>
      <circle cx="120" cy="225" r="3"/>
      <circle cx="140" cy="225" r="3"/>
      <circle cx="160" cy="225" r="3"/>
      <circle cx="180" cy="225" r="3"/>
      <circle cx="200" cy="225" r="3"/>
      <circle cx="220" cy="225" r="3"/>
      <circle cx="240" cy="225" r="3"/>
      <circle cx="260" cy="225" r="3"/>
      <circle cx="280" cy="225" r="3"/>
      <circle cx="300" cy="225" r="3"/>
      <circle cx="320" cy="225" r="3"/>
      
      <circle cx="80" cy="245" r="3"/>
      <circle cx="100" cy="245" r="3"/>
      <circle cx="120" cy="245" r="3"/>
      <circle cx="140" cy="245" r="3"/>
      <circle cx="160" cy="245" r="3"/>
      <circle cx="180" cy="245" r="3"/>
      <circle cx="200" cy="245" r="3"/>
      <circle cx="220" cy="245" r="3"/>
      <circle cx="240" cy="245" r="3"/>
      <circle cx="260" cy="245" r="3"/>
      <circle cx="280" cy="245" r="3"/>
      <circle cx="300" cy="245" r="3"/>
      <circle cx="320" cy="245" r="3"/>
      
      <circle cx="80" cy="265" r="3"/>
      <circle cx="100" cy="265" r="3"/>
      <circle cx="120" cy="265" r="3"/>
      <circle cx="140" cy="265" r="3"/>
      <circle cx="160" cy="265" r="3"/>
      <circle cx="180" cy="265" r="3"/>
      <circle cx="200" cy="265" r="3"/>
      <circle cx="220" cy="265" r="3"/>
      <circle cx="240" cy="265" r="3"/>
      <circle cx="260" cy="265" r="3"/>
      <circle cx="280" cy="265" r="3"/>
      <circle cx="300" cy="265" r="3"/>
      <circle cx="320" cy="265" r="3"/>
      
      <circle cx="80" cy="285" r="3"/>
      <circle cx="100" cy="285" r="3"/>
      <circle cx="120" cy="285" r="3"/>
      <circle cx="140" cy="285" r="3"/>
      <circle cx="160" cy="285" r="3"/>
      <circle cx="180" cy="285" r="3"/>
      <circle cx="200" cy="285" r="3"/>
      <circle cx="220" cy="285" r="3"/>
      <circle cx="240" cy="285" r="3"/>
      <circle cx="260" cy="285" r="3"/>
      <circle cx="280" cy="285" r="3"/>
      <circle cx="300" cy="285" r="3"/>
      <circle cx="320" cy="285" r="3"/>
      
      <circle cx="80" cy="305" r="3"/>
      <circle cx="100" cy="305" r="3"/>
      <circle cx="120" cy="305" r="3"/>
      <circle cx="140" cy="305" r="3"/>
      <circle cx="160" cy="305" r="3"/>
      <circle cx="180" cy="305" r="3"/>
      <circle cx="200" cy="305" r="3"/>
      <circle cx="220" cy="305" r="3"/>
      <circle cx="240" cy="305" r="3"/>
      <circle cx="260" cy="305" r="3"/>
      <circle cx="280" cy="305" r="3"/>
      <circle cx="300" cy="305" r="3"/>
      <circle cx="320" cy="305" r="3"/>
      
      <circle cx="80" cy="325" r="3"/>
      <circle cx="100" cy="325" r="3"/>
      <circle cx="120" cy="325" r="3"/>
      <circle cx="140" cy="325" r="3"/>
      <circle cx="160" cy="325" r="3"/>
      <circle cx="180" cy="325" r="3"/>
      <circle cx="200" cy="325" r="3"/>
      <circle cx="220" cy="325" r="3"/>
      <circle cx="240" cy="325" r="3"/>
      <circle cx="260" cy="325" r="3"/>
      <circle cx="280" cy="325" r="3"/>
      <circle cx="300" cy="325" r="3"/>
      <circle cx="320" cy="325" r="3"/>
    </g>
  </g>
  
  <!-- MIDI Components -->
  <rect class="ic" x="170" y="215" width="40" height="20" rx="3"/>
  <text x="190" y="228" text-anchor="middle" class="value">6N138</text>
  
  <rect class="resistor" x="115" y="200" width="25" height="6" rx="3"/>
  <text x="127" y="210" text-anchor="middle" class="value">220Ω</text>
  
  <rect class="resistor" x="115" y="250" width="25" height="6" rx="3"/>
  <text x="127" y="260" text-anchor="middle" class="value">220Ω</text>
  
  <rect class="resistor" x="235" y="215" width="6" height="15" rx="3"/>
  <text x="250" y="225" text-anchor="middle" class="value">4.7k</text>
  
  <!-- Track cuts for MIDI -->
  <line class="cut" x1="185" y1="225" x2="185" y2="235"/>
  <line class="cut" x1="195" y1="225" x2="195" y2="235"/>
  
  <!-- Grid labels for MIDI -->
  <text x="65" y="170" class="grid-label">A</text>
  <text x="65" y="190" class="grid-label">B</text>
  <text x="65" y="210" class="grid-label">C</text>
  <text x="65" y="230" class="grid-label">D</text>
  <text x="65" y="250" class="grid-label">E</text>
  <text x="65" y="270" class="grid-label">F</text>
  <text x="65" y="290" class="grid-label">G</text>
  <text x="65" y="310" class="grid-label">H</text>
  <text x="65" y="330" class="grid-label">I</text>
  
  <text x="85" y="345" class="grid-label">1</text>
  <text x="105" y="345" class="grid-label">2</text>
  <text x="125" y="345" class="grid-label">3</text>
  <text x="145" y="345" class="grid-label">4</text>
  <text x="165" y="345" class="grid-label">5</text>
  <text x="185" y="345" class="grid-label">6</text>
  <text x="205" y="345" class="grid-label">7</text>
  <text x="225" y="345" class="grid-label">8</text>
  <text x="245" y="345" class="grid-label">9</text>
  <text x="265" y="345" class="grid-label">10</text>
  <text x="285" y="345" class="grid-label">11</text>
  <text x="305" y="345" class="grid-label">12</text>
  <text x="325" y="345" class="grid-label">13</text>
  
  <!-- DAC Layout -->
  <text x="600" y="110" text-anchor="middle" class="section-title">MCP4921 DAC Circuit</text>
  <text x="600" y="130" text-anchor="middle" class="label">Size: 13×7 holes</text>
  
  <!-- DAC Stripboard -->
  <rect class="stripboard" x="450" y="150" width="300" height="140" rx="5"/>
  
  <!-- DAC Grid -->
  <g id="dac-grid">
    <!-- Copper tracks -->
    <line class="copper" x1="460" y1="165" x2="740" y2="165"/>  <!-- +5V rail -->
    <line class="copper" x1="460" y1="185" x2="740" y2="185"/>
    <line class="copper" x1="460" y1="205" x2="740" y2="205"/>
    <line class="copper" x1="460" y1="225" x2="740" y2="225"/>
    <line class="copper" x1="460" y1="245" x2="740" y2="245"/>
    <line class="copper" x1="460" y1="265" x2="740" y2="265"/>  <!-- GND rail -->
    <line class="copper" x1="460" y1="285" x2="740" y2="285"/>
    
    <!-- Grid holes for DAC -->
    <g fill="#333" stroke="#666">
      <circle cx="480" cy="165" r="3"/>
      <circle cx="500" cy="165" r="3"/>
      <circle cx="520" cy="165" r="3"/>
      <circle cx="540" cy="165" r="3"/>
      <circle cx="560" cy="165" r="3"/>
      <circle cx="580" cy="165" r="3"/>
      <circle cx="600" cy="165" r="3"/>
      <circle cx="620" cy="165" r="3"/>
      <circle cx="640" cy="165" r="3"/>
      <circle cx="660" cy="165" r="3"/>
      <circle cx="680" cy="165" r="3"/>
      <circle cx="700" cy="165" r="3"/>
      <circle cx="720" cy="165" r="3"/>
      
      <circle cx="480" cy="185" r="3"/>
      <circle cx="500" cy="185" r="3"/>
      <circle cx="520" cy="185" r="3"/>
      <circle cx="540" cy="185" r="3"/>
      <circle cx="560" cy="185" r="3"/>
      <circle cx="580" cy="185" r="3"/>
      <circle cx="600" cy="185" r="3"/>
      <circle cx="620" cy="185" r="3"/>
      <circle cx="640" cy="185" r="3"/>
      <circle cx="660" cy="185" r="3"/>
      <circle cx="680" cy="185" r="3"/>
      <circle cx="700" cy="185" r="3"/>
      <circle cx="720" cy="185" r="3"/>
      
      <circle cx="480" cy="205" r="3"/>
      <circle cx="500" cy="205" r="3"/>
      <circle cx="520" cy="205" r="3"/>
      <circle cx="540" cy="205" r="3"/>
      <circle cx="560" cy="205" r="3"/>
      <circle cx="580" cy="205" r="3"/>
      <circle cx="600" cy="205" r="3"/>
      <circle cx="620" cy="205" r="3"/>
      <circle cx="640" cy="205" r="3"/>
      <circle cx="660" cy="205" r="3"/>
      <circle cx="680" cy="205" r="3"/>
      <circle cx="700" cy="205" r="3"/>
      <circle cx="720" cy="205" r="3"/>
      
      <circle cx="480" cy="225" r="3"/>
      <circle cx="500" cy="225" r="3"/>
      <circle cx="520" cy="225" r="3"/>
      <circle cx="540" cy="225" r="3"/>
      <circle cx="560" cy="225" r="3"/>
      <circle cx="580" cy="225" r="3"/>
      <circle cx="600" cy="225" r="3"/>
      <circle cx="620" cy="225" r="3"/>
      <circle cx="640" cy="225" r="3"/>
      <circle cx="660" cy="225" r="3"/>
      <circle cx="680" cy="225" r="3"/>
      <circle cx="700" cy="225" r="3"/>
      <circle cx="720" cy="225" r="3"/>
      
      <circle cx="480" cy="245" r="3"/>
      <circle cx="500" cy="245" r="3"/>
      <circle cx="520" cy="245" r="3"/>
      <circle cx="540" cy="245" r="3"/>
      <circle cx="560" cy="245" r="3"/>
      <circle cx="580" cy="245" r="3"/>
      <circle cx="600" cy="245" r="3"/>
      <circle cx="620" cy="245" r="3"/>
      <circle cx="640" cy="245" r="3"/>
      <circle cx="660" cy="245" r="3"/>
      <circle cx="680" cy="245" r="3"/>
      <circle cx="700" cy="245" r="3"/>
      <circle cx="720" cy="245" r="3"/>
      
      <circle cx="480" cy="265" r="3"/>
      <circle cx="500" cy="265" r="3"/>
      <circle cx="520" cy="265" r="3"/>
      <circle cx="540" cy="265" r="3"/>
      <circle cx="560" cy="265" r="3"/>
      <circle cx="580" cy="265" r="3"/>
      <circle cx="600" cy="265" r="3"/>
      <circle cx="620" cy="265" r="3"/>
      <circle cx="640" cy="265" r="3"/>
      <circle cx="660" cy="265" r="3"/>
      <circle cx="680" cy="265" r="3"/>
      <circle cx="700" cy="265" r="3"/>
      <circle cx="720" cy="265" r="3"/>
      
      <circle cx="480" cy="285" r="3"/>
      <circle cx="500" cy="285" r="3"/>
      <circle cx="520" cy="285" r="3"/>
      <circle cx="540" cy="285" r="3"/>
      <circle cx="560" cy="285" r="3"/>
      <circle cx="580" cy="285" r="3"/>
      <circle cx="600" cy="285" r="3"/>
      <circle cx="620" cy="285" r="3"/>
      <circle cx="640" cy="285" r="3"/>
      <circle cx="660" cy="285" r="3"/>
      <circle cx="680" cy="285" r="3"/>
      <circle cx="700" cy="285" r="3"/>
      <circle cx="720" cy="285" r="3"/>
    </g>
  </g>
  
  <!-- DAC Components -->
  <rect class="ic" x="570" y="195" width="60" height="30" rx="5"/>
  <text x="600" y="213" text-anchor="middle" class="value">MCP4921</text>
  
  <!-- Track cuts for DAC -->
  <line class="cut" x1="585" y1="205" x2="585" y2="215"/>
  <line class="cut" x1="615" y1="205" x2="615" y2="215"/>
  
  <!-- CD4049 Layout -->
  <text x="1100" y="110" text-anchor="middle" class="section-title">CD4049 Overdrive</text>
  <text x="1100" y="130" text-anchor="middle" class="label">Size: 11×6 holes</text>
  
  <!-- CD4049 Stripboard -->
  <rect class="stripboard" x="950" y="150" width="300" height="120" rx="5"/>
  
  <!-- CD4049 Grid -->
  <g id="cd4049-grid">
    <!-- Copper tracks -->
    <line class="copper" x1="960" y1="165" x2="1240" y2="165"/>  <!-- +V rail -->
    <line class="copper" x1="960" y1="185" x2="1240" y2="185"/>
    <line class="copper" x1="960" y1="205" x2="1240" y2="205"/>
    <line class="copper" x1="960" y1="225" x2="1240" y2="225"/>
    <line class="copper" x1="960" y1="245" x2="1240" y2="245"/>  <!-- GND/-V rail -->
    <line class="copper" x1="960" y1="265" x2="1240" y2="265"/>
    
    <!-- Grid holes for CD4049 -->
    <g fill="#333" stroke="#666">
      <circle cx="980" cy="165" r="3"/>
      <circle cx="1000" cy="165" r="3"/>
      <circle cx="1020" cy="165" r="3"/>
      <circle cx="1040" cy="165" r="3"/>
      <circle cx="1060" cy="165" r="3"/>
      <circle cx="1080" cy="165" r="3"/>
      <circle cx="1100" cy="165" r="3"/>
      <circle cx="1120" cy="165" r="3"/>
      <circle cx="1140" cy="165" r="3"/>
      <circle cx="1160" cy="165" r="3"/>
      <circle cx="1180" cy="165" r="3"/>
      
      <circle cx="980" cy="185" r="3"/>
      <circle cx="1000" cy="185" r="3"/>
      <circle cx="1020" cy="185" r="3"/>
      <circle cx="1040" cy="185" r="3"/>
      <circle cx="1060" cy="185" r="3"/>
      <circle cx="1080" cy="185" r="3"/>
      <circle cx="1100" cy="185" r="3"/>
      <circle cx="1120" cy="185" r="3"/>
      <circle cx="1140" cy="185" r="3"/>
      <circle cx="1160" cy="185" r="3"/>
      <circle cx="1180" cy="185" r="3"/>
      
      <circle cx="980" cy="205" r="3"/>
      <circle cx="1000" cy="205" r="3"/>
      <circle cx="1020" cy="205" r="3"/>
      <circle cx="1040" cy="205" r="3"/>
      <circle cx="1060" cy="205" r="3"/>
      <circle cx="1080" cy="205" r="3"/>
      <circle cx="1100" cy="205" r="3"/>
      <circle cx="1120" cy="205" r="3"/>
      <circle cx="1140" cy="205" r="3"/>
      <circle cx="1160" cy="205" r="3"/>
      <circle cx="1180" cy="205" r="3"/>
      
      <circle cx="980" cy="225" r="3"/>
      <circle cx="1000" cy="225" r="3"/>
      <circle cx="1020" cy="225" r="3"/>
      <circle cx="1040" cy="225" r="3"/>
      <circle cx="1060" cy="225" r="3"/>
      <circle cx="1080" cy="225" r="3"/>
      <circle cx="1100" cy="225" r="3"/>
      <circle cx="1120" cy="225" r="3"/>
      <circle cx="1140" cy="225" r="3"/>
      <circle cx="1160" cy="225" r="3"/>
      <circle cx="1180" cy="225" r="3"/>
      
      <circle cx="980" cy="245" r="3"/>
      <circle cx="1000" cy="245" r="3"/>
      <circle cx="1020" cy="245" r="3"/>
      <circle cx="1040" cy="245" r="3"/>
      <circle cx="1060" cy="245" r="3"/>
      <circle cx="1080" cy="245" r="3"/>
      <circle cx="1100" cy="245" r="3"/>
      <circle cx="1120" cy="245" r="3"/>
      <circle cx="1140" cy="245" r="3"/>
      <circle cx="1160" cy="245" r="3"/>
      <circle cx="1180" cy="245" r="3"/>
      
      <circle cx="980" cy="265" r="3"/>
      <circle cx="1000" cy="265" r="3"/>
      <circle cx="1020" cy="265" r="3"/>
      <circle cx="1040" cy="265" r="3"/>
      <circle cx="1060" cy="265" r="3"/>
      <circle cx="1080" cy="265" r="3"/>
      <circle cx="1100" cy="265" r="3"/>
      <circle cx="1120" cy="265" r="3"/>
      <circle cx="1140" cy="265" r="3"/>
      <circle cx="1160" cy="265" r="3"/>
      <circle cx="1180" cy="265" r="3"/>
    </g>
  </g>
  
  <!-- CD4049 Components -->
  <rect class="ic" x="1040" y="195" width="80" height="25" rx="5"/>
  <text x="1080" y="210" text-anchor="middle" class="value">CD4049UBE</text>
  
  <rect class="capacitor" x="980" y="200" width="12" height="8" rx="2"/>
  <text x="986" y="215" text-anchor="middle" class="value">0.1µF</text>
  
  <rect class="resistor" x="1140" y="195" width="25" height="8" rx="3"/>
  <text x="1152" y="205" text-anchor="middle" class="value">100k</text>
  
  <!-- Construction Guide -->
  <rect fill="#333" stroke="#666" stroke-width="3" x="50" y="400" width="1500" height="750" rx="10"/>
  <text x="70" y="430" class="label" fill="#ff3333">Stripboard Construction Guide:</text>
  
  <!-- MIDI Construction -->
  <text x="70" y="470" class="section-title">MIDI Interface (6N138) - 15×9 holes:</text>
  
  <text x="90" y="500" class="value">Step 1 - Track Cuts:</text>
  <text x="110" y="520" fill="#fff">• Cut tracks between IC pins 6-7 and 5-6 (rows D-E, columns 6-7)</text>
  <text x="110" y="540" fill="#fff">• Use 3mm drill bit or track cutting tool</text>
  <text x="110" y="560" fill="#fff">• Verify cuts with continuity tester</text>
  
  <text x="90" y="590" class="value">Step 2 - Component Placement:</text>
  <text x="110" y="610" fill="#fff">• 6N138: Pins in rows D-E, columns 6-7 (DIP-8 socket recommended)</text>
  <text x="110" y="630" fill="#fff">• 220Ω resistors: R1 at C3-C4, R2 at F3-F4</text>
  <text x="110" y="650" fill="#fff">• 4.7kΩ resistor: C9 (vertical orientation)</text>
  
  <text x="90" y="680" class="value">Step 3 - Connections:</text>
  <text x="110" y="700" fill="#fff">• +5V: Row A (power rail)   • GND: Row I (ground rail)</text>
  <text x="110" y="720" fill="#fff">• MIDI IN: DIN pins 4,5 to resistors   • Arduino A4: From pin 6 output</text>
  
  <!-- DAC Construction -->
  <text x="800" y="470" class="section-title">MCP4921 DAC - 13×7 holes:</text>
  
  <text x="820" y="500" class="value">Step 1 - Track Cuts:</text>
  <text x="840" y="520" fill="#fff">• Cut between IC pins to isolate each pin</text>
  <text x="840" y="540" fill="#fff">• Cut at columns 5-6 and 7-8, rows C-D</text>
  
  <text x="820" y="570" class="value">Step 2 - Component Placement:</text>
  <text x="840" y="590" fill="#fff">• MCP4921: DIP-8 socket at columns 5-8, rows C-D</text>
  <text x="840" y="610" fill="#fff">• Bypass capacitors: 0.1µF near VCC and VSS pins</text>
  
  <text x="820" y="640" class="value">Step 3 - Connections:</text>
  <text x="840" y="660" fill="#fff">• VCC,VREF → +5V   • VSS → GND   • LDAC → GND</text>
  <text x="840" y="680" fill="#fff">• CS → Arduino D13   • SCK,SDI → Arduino D11</text>
  <text x="840" y="700" fill="#fff">• VOUT → CV output jack (0-4.096V)</text>
  
  <!-- CD4049 Construction -->
  <text x="70" y="750" class="section-title">CD4049 Overdrive - 11×6 holes:</text>
  
  <text x="90" y="780" class="value">Step 1 - Track Cuts:</text>
  <text x="110" y="800" fill="#fff">• Cut between IC pins to prevent unwanted connections</text>
  <text x="110" y="820" fill="#fff">• Cut at input and output connection points</text>
  
  <text x="90" y="850" class="value">Step 2 - Component Placement:</text>
  <text x="110" y="870" fill="#fff">• CD4049UBE: DIP-16 socket spanning rows B-D</text>
  <text x="110" y="890" fill="#fff">• 0.1µF input coupling capacitor</text>
  <text x="110" y="910" fill="#fff">• 100kΩ level control potentiometer</text>
  
  <text x="90" y="940" class="value">Step 3 - Power Supply:</text>
  <text x="110" y="960" fill="#fff">• Single supply: VDD = +9V to +18V, VSS = GND</text>
  <text x="110" y="980" fill="#fff">• Dual supply: VDD = +15V, VSS = -15V (compatible with ML-303)</text>
  
  <!-- General Tips -->
  <text x="800" y="750" class="section-title">General Construction Tips:</text>
  
  <text x="820" y="780" class="value">Tools Required:</text>
  <text x="840" y="800" fill="#fff">• 3mm drill bit or track cutting tool</text>
  <text x="840" y="820" fill="#fff">• Digital multimeter with continuity tester</text>
  <text x="840" y="840" fill="#fff">• Fine-tip soldering iron (25-40W)</text>
  <text x="840" y="860" fill="#fff">• Rosin-core solder (0.6-0.8mm diameter)</text>
  
  <text x="820" y="890" class="value">Best Practices:</text>
  <text x="840" y="910" fill="#fff">• Use IC sockets for all ICs to prevent heat damage</text>
  <text x="840" y="930" fill="#fff">• Keep component leads short to minimize noise</text>
  <text x="840" y="950" fill="#fff">• Test all connections before applying power</text>
  <text x="840" y="970" fill="#fff">• Add bypass capacitors (0.1µF) near all IC power pins</text>
  
  <text x="70" y="1020" class="value">Grid Reference:</text>
  <text x="90" y="1040" fill="#fff">Rows: A-I (horizontal copper tracks)   Columns: 1-15 (hole positions)</text>
  <text x="90" y="1060" fill="#fff">Hole spacing: 0.1" (2.54mm) standard perfboard grid</text>
  <text x="90" y="1080" fill="#fff">Track width: Standard stripboard copper width (approx 2mm)</text>
  
  <text x="70" y="1120" class="section-title">Testing Procedures:</text>
  <text x="90" y="1140" fill="#fff">1. Verify all track cuts with continuity tester</text>
  <text x="90" y="1160" fill="#fff">2. Check power supply connections before inserting ICs</text>
  <text x="90" y="1180" fill="#fff">3. Test with known good signals before connecting to ML-303</text>
</svg>